<?xml version="1.0"?>
<svg version="1.1" xmlns="http://www.w3.org/2000/svg" width="200" height="100" style=""><path fill="#ffd49b" d="M42.104,64.56l0,2.24l-7.588,0l0-2.24l1.484-0.7l0-6.664c0-1.54-0.448-2.296-1.624-2.296c-1.82,0-3.108,1.456-3.108,1.456l0,7.504l1.456,0.7l0,2.24l-7.112,0l0-2.24l1.456-0.7l0-6.664c0-1.54-0.392-2.296-1.596-2.296c-1.82,0-3.136,1.456-3.136,1.456l0,7.504l1.484,0.7l0,2.24l-7.84,0l0-2.24l2.156-0.7l0-9.1l-2.128-0.7l0-2.24l5.852-0.14l0.196,1.988s2.436-2.268,4.9-2.268c1.988,0,3.22,0.924,3.864,2.408c0.476-0.476,2.576-2.408,5.068-2.408c2.94,0,4.312,1.904,4.312,5.04l0,7.42z M59.39428,60.164l-9.296,0c0.168,2.24,1.456,3.556,3.388,3.556c2.324,0,4.704-1.316,4.704-1.316l1.204,2.324s-2.8,2.352-6.384,2.352c-4.816,0-7.28-2.8-7.28-7.56c0-4.9,2.772-8.12,7.476-8.12c4.172,0,6.356,2.576,6.356,6.58c0,1.064-0.168,2.1-0.168,2.184z M50.15428,57.56l5.068,0c0-1.596-0.672-2.8-2.296-2.8c-1.568,0-2.548,1.148-2.772,2.8z M89.59256,64.56l0,2.24l-7.588,0l0-2.24l1.484-0.7l0-6.664c0-1.54-0.448-2.296-1.624-2.296c-1.82,0-3.108,1.456-3.108,1.456l0,7.504l1.456,0.7l0,2.24l-7.112,0l0-2.24l1.456-0.7l0-6.664c0-1.54-0.392-2.296-1.596-2.296c-1.82,0-3.136,1.456-3.136,1.456l0,7.504l1.484,0.7l0,2.24l-7.84,0l0-2.24l2.156-0.7l0-9.1l-2.128-0.7l0-2.24l5.852-0.14l0.196,1.988s2.436-2.268,4.9-2.268c1.988,0,3.22,0.924,3.864,2.408c0.476-0.476,2.576-2.408,5.068-2.408c2.94,0,4.312,1.904,4.312,5.04l0,7.42z M106.88284,60.164l-9.296,0c0.168,2.24,1.456,3.556,3.388,3.556c2.324,0,4.704-1.316,4.704-1.316l1.204,2.324s-2.8,2.352-6.384,2.352c-4.816,0-7.28-2.8-7.28-7.56c0-4.9,2.772-8.12,7.476-8.12c4.172,0,6.356,2.576,6.356,6.58c0,1.064-0.168,2.1-0.168,2.184z M97.64284,57.56l5.068,0c0-1.596-0.672-2.8-2.296-2.8c-1.568,0-2.548,1.148-2.772,2.8z M116.41712,64.28l4.144,0c3.556,0,5.6,1.54,5.6,4.34c0,3.08-2.464,5.32-7.84,5.32c-4.396,0-7.224-0.98-7.224-4.06c0-2.408,2.94-3.36,2.94-3.36s-1.68-0.252-1.68-1.848c0-0.812,1.12-2.632,1.456-3.164c-0.672-0.448-2.156-1.652-2.156-4.368c0-3.836,2.884-5.74,6.72-5.74c1.624,0,2.772,0.42,3.304,0.672l4.816-0.112l0,2.24l-2.296,0.392c0.056,0.252,0.476,1.008,0.476,2.212c0,4.06-2.856,5.74-6.72,5.74c-0.756,0-1.316-0.14-1.428-0.14z M118.23712,54.284c-1.68,0-2.38,0.896-2.38,2.66c0,1.68,0.644,2.8,2.24,2.8c1.764,0,2.38-0.924,2.38-2.8c0-1.764-0.7-2.66-2.24-2.66z M119.44112,67.36l-2.94,0s-1.344,0.616-1.344,1.82c0,1.4,1.204,1.68,3.5,1.68c2.52,0,3.584-0.56,3.584-1.904c0-1.26-0.924-1.596-2.8-1.596z M143.6474,60.164l-9.296,0c0.168,2.24,1.456,3.556,3.388,3.556c2.324,0,4.704-1.316,4.704-1.316l1.204,2.324s-2.8,2.352-6.384,2.352c-4.816,0-7.28-2.8-7.28-7.56c0-4.9,2.772-8.12,7.476-8.12c4.172,0,6.356,2.576,6.356,6.58c0,1.064-0.168,2.1-0.168,2.184z M134.4074,57.56l5.068,0c0-1.596-0.672-2.8-2.296-2.8c-1.568,0-2.548,1.148-2.772,2.8z M153.65768,51.68l0.196,1.932s2.66-2.156,5.152-2.156c2.716,0,4.256,1.932,4.256,4.984l0,7.42l1.96,0.7l0,2.24l-7.7,0l0-2.24l1.54-0.7l0-6.664c0-1.288-0.728-2.24-1.904-2.24c-1.736,0-2.996,1.596-2.996,1.596l0,7.308l1.54,0.7l0,2.24l-7.98,0l0-2.24l2.24-0.7l0-9.1l-2.24-0.7l0-2.24z"/><path fill="#ffd49b" d=""/></svg>
