<svg width="424.7912231445312px" height="122.021240234375px" xmlns="http://www.w3.org/2000/svg" viewBox="37.60438842773439 13.9893798828125 424.7912231445312 122.021240234375" style="background:#596886" preserveAspectRatio="xMidYMid"><defs><filter id="editing-hover" x="-100%" y="-100%" width="300%" height="300%"><feFlood flood-color="#052b4a" result="flood"></feFlood><feComposite operator="in" in2="SourceAlpha" in="flood" result="shadow"></feComposite><feOffset dx="-4" dy="-4" in="SourceGraphic" result="offset-1"></feOffset><feOffset dx="4" dy="4" in="shadow" result="offset-2"></feOffset><feMerge><feMergeNode in="offset-2"></feMergeNode><feMergeNode in="offset-1"></feMergeNode></feMerge></filter></defs><g filter="url(#editing-hover)"><g transform="translate(103.61219608783722, 102.51218795776367)"><path d="M6.53 0L-0.83 0L10.75-42.24L24.13-42.24L27.07-18.11L38.98-42.24L50.18-42.24L51.33-10.62L51.33-10.62Q51.58-4.35 54.66-2.43L54.66-2.43L54.66-2.43Q53.95-1.15 51.90 0.06L51.90 0.06L51.90 0.06Q49.86 1.28 47.14 1.28L47.14 1.28L47.14 1.28Q44.42 1.28 42.82 0.51L42.82 0.51L42.82 0.51Q41.22-0.26 40.32-1.54L40.32-1.54L40.32-1.54Q38.72-3.84 38.72-8.26L38.72-8.26L38.72-28.03L26.11 0L18.18 0L13.70-28.74L6.53 0ZM83.33-10.82L83.33-10.82L83.33-10.82Q84.93-9.73 84.93-7.33L84.93-7.33L84.93-7.33Q84.93-4.93 83.71-3.39L83.71-3.39L83.71-3.39Q82.50-1.86 80.51-0.83L80.51-0.83L80.51-0.83Q76.42 1.28 72 1.28L72 1.28L72 1.28Q67.58 1.28 64.99 0.32L64.99 0.32L64.99 0.32Q62.40-0.64 60.67-2.43L60.67-2.43L60.67-2.43Q57.28-5.82 57.28-12.03L57.28-12.03L57.28-12.03Q57.28-21.70 62.53-27.58L62.53-27.58L62.53-27.58Q68.16-33.92 77.95-33.92L77.95-33.92L77.95-33.92Q84.03-33.92 87.04-31.36L87.04-31.36L87.04-31.36Q89.28-29.44 89.28-26.30L89.28-26.30L89.28-26.30Q89.28-15.04 69.82-15.04L69.82-15.04L69.82-15.04Q69.57-13.38 69.57-11.97L69.57-11.97L69.57-11.97Q69.57-9.02 70.88-7.90L70.88-7.90L70.88-7.90Q72.19-6.78 74.62-6.78L74.62-6.78L74.62-6.78Q77.06-6.78 79.65-7.90L79.65-7.90L79.65-7.90Q82.24-9.02 83.33-10.82ZM70.27-17.79L70.27-17.79L70.27-17.79Q74.82-17.79 77.44-20.61L77.44-20.61L77.44-20.61Q80.06-23.30 80.06-27.58L80.06-27.58L80.06-27.58Q80.06-29.06 79.52-29.86L79.52-29.86L79.52-29.86Q78.98-30.66 77.89-30.66L77.89-30.66L77.89-30.66Q76.80-30.66 75.87-30.24L75.87-30.24L75.87-30.24Q74.94-29.82 73.98-28.42L73.98-28.42L73.98-28.42Q71.62-25.22 70.27-17.79ZM137.54 1.28L137.54 1.28L137.54 1.28Q129.79 1.28 129.79-4.74L129.79-4.74L129.79-4.74Q129.79-7.36 130.91-12.45L130.91-12.45L130.91-12.45Q132.03-17.54 132.42-19.58L132.42-19.58L132.42-19.58Q133.31-24.26 133.31-25.73L133.31-25.73L133.31-25.73Q133.31-28.99 130.88-28.99L130.88-28.99L130.88-28.99Q129.28-28.99 127.74-26.78L127.74-26.78L127.74-26.78Q126.21-24.58 125.50-20.16L125.50-20.16L121.54 0L109.06 1.28L112.51-16.13L112.51-16.13Q113.09-19.01 113.60-22.27L113.60-22.27L113.60-22.27Q114.11-25.54 114.11-26.05L114.11-26.05L114.11-26.05Q114.11-28.99 111.94-28.99L111.94-28.99L111.94-28.99Q110.46-28.99 108.86-26.82L108.86-26.82L108.86-26.82Q107.26-24.64 106.37-20.16L106.37-20.16L102.46 0L89.86 1.28L96.58-32.64L107.01-33.92L105.92-27.46L105.92-27.46Q107.58-30.91 110.66-32.42L110.66-32.42L110.66-32.42Q113.73-33.92 118.53-33.92L118.53-33.92L118.53-33.92Q121.28-33.92 123.07-32.58L123.07-32.58L123.07-32.58Q124.86-31.23 125.44-29.06L125.44-29.06L125.44-29.06Q126.53-31.30 129.31-32.61L129.31-32.61L129.31-32.61Q132.10-33.92 135.52-33.92L135.52-33.92L135.52-33.92Q138.94-33.92 140.64-33.18L140.64-33.18L140.64-33.18Q142.34-32.45 143.36-31.23L143.36-31.23L143.36-31.23Q145.09-28.99 145.09-24.90L145.09-24.90L145.09-24.90Q145.09-20.86 143.36-12.48L143.36-12.48L143.36-12.48Q142.46-8.38 142.46-6.88L142.46-6.88L142.46-6.88Q142.46-5.38 143.33-4.48L143.33-4.48L143.33-4.48Q144.19-3.58 145.47-3.46L145.47-3.46L145.47-3.46Q144.83-1.28 142.62 0L142.62 0L142.62 0Q140.42 1.28 137.54 1.28ZM176.32-10.82L176.32-10.82L176.32-10.82Q177.92-9.73 177.92-7.33L177.92-7.33L177.92-7.33Q177.92-4.93 176.70-3.39L176.70-3.39L176.70-3.39Q175.49-1.86 173.50-0.83L173.50-0.83L173.50-0.83Q169.41 1.28 164.99 1.28L164.99 1.28L164.99 1.28Q160.58 1.28 157.98 0.32L157.98 0.32L157.98 0.32Q155.39-0.64 153.66-2.43L153.66-2.43L153.66-2.43Q150.27-5.82 150.27-12.03L150.27-12.03L150.27-12.03Q150.27-21.70 155.52-27.58L155.52-27.58L155.52-27.58Q161.15-33.92 170.94-33.92L170.94-33.92L170.94-33.92Q177.02-33.92 180.03-31.36L180.03-31.36L180.03-31.36Q182.27-29.44 182.27-26.30L182.27-26.30L182.27-26.30Q182.27-15.04 162.82-15.04L162.82-15.04L162.82-15.04Q162.56-13.38 162.56-11.97L162.56-11.97L162.56-11.97Q162.56-9.02 163.87-7.90L163.87-7.90L163.87-7.90Q165.18-6.78 167.62-6.78L167.62-6.78L167.62-6.78Q170.05-6.78 172.64-7.90L172.64-7.90L172.64-7.90Q175.23-9.02 176.32-10.82ZM163.26-17.79L163.26-17.79L163.26-17.79Q167.81-17.79 170.43-20.61L170.43-20.61L170.43-20.61Q173.06-23.30 173.06-27.58L173.06-27.58L173.06-27.58Q173.06-29.06 172.51-29.86L172.51-29.86L172.51-29.86Q171.97-30.66 170.88-30.66L170.88-30.66L170.88-30.66Q169.79-30.66 168.86-30.24L168.86-30.24L168.86-30.24Q167.94-29.82 166.98-28.42L166.98-28.42L166.98-28.42Q164.61-25.22 163.26-17.79ZM188.99-26.75L188.99-26.75L188.99-26.75Q191.17-29.82 194.46-31.87L194.46-31.87L194.46-31.87Q197.76-33.92 201.79-33.92L201.79-33.92L201.79-33.92Q205.82-33.92 207.74-32.64L207.74-32.64L220.29-33.92L215.94-9.34L215.94-9.34Q213.70 3.20 208.96 8.13L208.96 8.13L208.96 8.13Q204.42 12.80 195.58 12.80L195.58 12.80L195.58 12.80Q188.86 12.80 185.02 10.69L185.02 10.69L185.02 10.69Q181.18 8.58 181.18 5.06L181.18 5.06L181.18 5.06Q181.18 2.43 183.17 0.93L183.17 0.93L183.17 0.93Q185.15-0.58 188.22-0.58L188.22-0.58L188.22-0.58Q190.91-0.58 192.96 0.64L192.96 0.64L192.96 0.64Q194.18 1.28 194.75 2.18L194.75 2.18L194.75 2.18Q193.28 3.46 193.28 5.57L193.28 5.57L193.28 5.57Q193.28 8.32 195.84 8.32L195.84 8.32L195.84 8.32Q200.13 8.32 202.56-1.79L202.56-1.79L202.56-1.79Q203.26-4.54 203.84-7.30L203.84-7.30L203.84-7.30Q200.96-3.78 194.43-3.78L194.43-3.78L194.43-3.78Q189.89-3.78 187.26-5.95L187.26-5.95L187.26-5.95Q184.64-8.13 184.64-13.25L184.64-13.25L184.64-13.25Q184.64-16.45 185.73-20.06L185.73-20.06L185.73-20.06Q186.82-23.68 188.99-26.75ZM197.31-13.06L197.31-13.06L197.31-13.06Q197.31-8.70 199.55-8.70L199.55-8.70L199.55-8.70Q201.09-8.70 202.56-10.37L202.56-10.37L202.56-10.37Q203.71-11.71 204.16-13.70L204.16-13.70L207.42-30.14L207.42-30.14Q207.10-30.21 206.78-30.34L206.78-30.34L206.78-30.34Q206.14-30.59 205.31-30.59L205.31-30.59L205.31-30.59Q201.41-30.59 199.10-24.19L199.10-24.19L199.10-24.19Q197.31-19.20 197.31-13.06ZM248.70-10.82L248.70-10.82L248.70-10.82Q250.30-9.73 250.30-7.33L250.30-7.33L250.30-7.33Q250.30-4.93 249.09-3.39L249.09-3.39L249.09-3.39Q247.87-1.86 245.89-0.83L245.89-0.83L245.89-0.83Q241.79 1.28 237.38 1.28L237.38 1.28L237.38 1.28Q232.96 1.28 230.37 0.32L230.37 0.32L230.37 0.32Q227.78-0.64 226.05-2.43L226.05-2.43L226.05-2.43Q222.66-5.82 222.66-12.03L222.66-12.03L222.66-12.03Q222.66-21.70 227.90-27.58L227.90-27.58L227.90-27.58Q233.54-33.92 243.33-33.92L243.33-33.92L243.33-33.92Q249.41-33.92 252.42-31.36L252.42-31.36L252.42-31.36Q254.66-29.44 254.66-26.30L254.66-26.30L254.66-26.30Q254.66-15.04 235.20-15.04L235.20-15.04L235.20-15.04Q234.94-13.38 234.94-11.97L234.94-11.97L234.94-11.97Q234.94-9.02 236.26-7.90L236.26-7.90L236.26-7.90Q237.57-6.78 240.00-6.78L240.00-6.78L240.00-6.78Q242.43-6.78 245.02-7.90L245.02-7.90L245.02-7.90Q247.62-9.02 248.70-10.82ZM235.65-17.79L235.65-17.79L235.65-17.79Q240.19-17.79 242.82-20.61L242.82-20.61L242.82-20.61Q245.44-23.30 245.44-27.58L245.44-27.58L245.44-27.58Q245.44-29.06 244.90-29.86L244.90-29.86L244.90-29.86Q244.35-30.66 243.26-30.66L243.26-30.66L243.26-30.66Q242.18-30.66 241.25-30.24L241.25-30.24L241.25-30.24Q240.32-29.82 239.36-28.42L239.36-28.42L239.36-28.42Q236.99-25.22 235.65-17.79ZM283.90 1.28L283.90 1.28L283.90 1.28Q276.16 1.28 276.16-4.74L276.16-4.74L276.16-4.74Q276.22-6.40 276.74-9.22L276.74-9.22L277.89-15.10L277.89-15.10Q279.62-23.42 279.62-25.28L279.62-25.28L279.62-25.28Q279.62-28.99 277.44-28.99L277.44-28.99L277.44-28.99Q273.79-28.99 271.87-19.46L271.87-19.46L268.10 0L255.23 1.28L261.89-32.70L272.38-33.92L271.36-27.65L271.36-27.65Q274.37-33.92 283.58-33.92L283.58-33.92L283.58-33.92Q288.06-33.92 289.95-32.03L289.95-32.03L289.95-32.03Q291.84-30.14 291.84-25.92L291.84-25.92L291.84-25.92Q291.84-21.95 289.79-12.67L289.79-12.67L289.79-12.67Q288.83-8.51 288.83-6.94L288.83-6.94L288.83-6.94Q288.83-5.38 289.70-4.48L289.70-4.48L289.70-4.48Q290.56-3.58 291.84-3.46L291.84-3.46L291.84-3.46Q291.20-1.28 288.99 0L288.99 0L288.99 0Q286.78 1.28 283.90 1.28Z" fill="#ffd5af"></path></g></g><style>text {
  font-size: 64px;
  font-family: Arial Black;
  dominant-baseline: central;
  text-anchor: middle;
}</style></svg>